<svg xmlns="http://www.w3.org/2000/svg" viewBox="0 0 201.69 254.23"><defs><style>.cls-1{fill:#1970ff;}.cls-2{fill:#1952ff;}.cls-3{fill:#008bd0;}.cls-4{fill:#005cd0;}.cls-5{fill:#fff9f7;}.cls-6{fill:#ffd2c2;}.cls-7{fill:#f9bfbd;}.cls-11,.cls-8{fill:none;}.cls-10,.cls-11,.cls-8,.cls-9{stroke:#000;}.cls-8{stroke-linecap:round;}.cls-11,.cls-8,.cls-9{stroke-linejoin:round;}.cls-10{fill:#fff;stroke-miterlimit:10;}.cls-11{stroke-width:2px;}</style></defs><title>Asset 3</title><g id="Layer_2" data-name="Layer 2"><g id="boy"><g id="right_foot" data-name="right foot"><path class="cls-1" d="M148.21,179.24s.7,56.1,6.3,66.6,32.8,4.9,32.8,4.9l12-71.5Z"/><path class="cls-2" d="M160.41,245.84c-5.6-10.5-6.3-66.6-6.3-66.6h-5.9s.7,56.1,6.3,66.6c3.1,5.8,12.8,6.7,20.8,6.3C168.91,251.74,162.71,250.24,160.41,245.84Z"/></g><g id="left_foot" data-name="left foot"><path class="cls-1" d="M107.51,181.24s.7,56.1,6.3,66.6,32.8,4.9,32.8,4.9l12-71.5Z"/><path class="cls-2" d="M119.71,247.84c-5.6-10.5-6.3-66.6-6.3-66.6h-5.9s.7,56.1,6.3,66.6c3.1,5.8,12.8,6.7,20.8,6.3C128.21,253.84,122,252.24,119.71,247.84Z"/></g><path id="body" class="cls-3" d="M112.21,109.54s-29.4,85.1,11.6,91.3c48,7.2,78.4-1.6,77.3-27.8-2.2-48.4-9.4-61.9-11.6-67.2C182.11,88.24,112.21,109.54,112.21,109.54Z"/><g id="hand"><path class="cls-4" d="M82.91,161h0c-6.9-5.4-9.5-13.7-5.8-18.5l20.4-25.4c3.7-4.8,17.8-12,24.7-6.7h0c6.9,5.4,1.1,22.6-2.6,27.4L102.21,162C98.51,166.84,89.81,166.44,82.91,161Z"/><path class="cls-3" d="M81.51,159.34h0c-6.9-5.4-9.5-13.7-5.8-18.5l20.4-25.4c3.7-4.8,17.8-12,24.7-6.7h0c6.9,5.4,1.1,22.6-2.6,27.4l-17.4,24.2C97.11,165.14,88.41,164.74,81.51,159.34Z"/></g><g id="head"><path class="cls-5" d="M145.81,114.14c-40.8.5-54.4-14.7-56.2-54.8-1.4-30.2,25.2-54.7,56.2-54.8,20.7-.1,38.6,1.4,46.4,16,12.7,23.8,13.2,63.2-2.6,80.7C180.11,111.64,166.11,113.84,145.81,114.14Z"/><path class="cls-6" d="M195.11,93.24c-9.5,10.4-23.4,12.6-43.7,12.9-40.8.5-54.4-14.7-56.2-54.8a48.11,48.11,0,0,1,4.5-22.7,49.68,49.68,0,0,0-9.1,30.7c-1.68,38.77,14.48,57.32,56.2,54.8,20.3-.3,34.3-2.5,43.7-12.9a42,42,0,0,0,6.6-10.4C196.41,91.64,195.81,92.54,195.11,93.24Z"/><ellipse class="cls-7" cx="153.41" cy="77.04" rx="9.6" ry="6.2"/><path id="eye" class="cls-8" d="M169.71,63.84s.8-5.7,10.6-5.7c11.1,0,11.6,5.7,11.6,5.7"/><path class="cls-9" d="M200.51,46.74c-9.2-16.4-16.3-13.5-19.7-2.4-3-8.3-5.6-8.8-11.1,2.1-5.8-15.9-14.9-.1-13.2,4.8-4.7-11.9-4.8-8.1-12.7,1.7-2.1-11.3-4.6-4.4-10.8,1.9-3.2-13.2-9.1-5.6-15.3,6.2-13.3-20.5-16.5-4-16.5,3.7-2.8,1.1-12.9-13.1-9.8,5.7-12.2-8.5-10.4-45.5,15.1-59.4C140.21-7.26,208.71-5.46,200.51,46.74Z"/><path class="cls-10" d="M169.71,90.44c.6.5,10.1,10.7,27.2-.8"/></g><path class="cls-11" d="M.31,195.73s26.81,8.75,56.85-14.49c26.94-20.84,35.17-31.51,35.17-31.51"/><ellipse class="cls-5" cx="85" cy="158.44" rx="12.59" ry="15.83" transform="translate(-93.65 178.72) rotate(-68.27)"/><path class="cls-6" d="M81.66,166.77c-7.39-2.94-11.76-9.72-10.55-15.83a13.34,13.34,0,0,0-.83,1.58c-2.57,6.49,1.88,14.33,10,17.57s16.81.6,19.38-5.81a12.49,12.49,0,0,0,.52-1.73C97,167.83,89.05,169.79,81.66,166.77Z"/></g></g></svg>