<svg xmlns="http://www.w3.org/2000/svg" viewBox="0 0 151.3 169.85"><defs><style>.cls-1{fill:#ab8959;}.cls-2{fill:#ffe8b5;}.cls-3{fill:#fff;}.cls-4{fill:#a1a1a1;}.cls-5{fill:#f9404a;}.cls-6{fill:#a1114a;}</style></defs><title>Asset 4</title><g id="Layer_2" data-name="Layer 2"><g id="bunny_light" data-name="bunny light"><g id="pillars"><circle class="cls-1" cx="113.8" cy="155.95" r="13.9"/><circle class="cls-2" cx="113.8" cy="155.95" r="11"/><circle class="cls-1" cx="62.6" cy="155.95" r="13.9"/><circle class="cls-2" cx="62.6" cy="155.95" r="11"/><path class="cls-3" d="M146.6,119.35a34.66,34.66,0,0,0-33.5-34.6H61A34.6,34.6,0,0,0,61,154h52A34.67,34.67,0,0,0,146.6,119.35Z"/><circle class="cls-3" cx="116.7" cy="68.95" r="34.6"/><circle class="cls-3" cx="16.3" cy="114.65" r="16.3"/><path class="cls-4" d="M4.5,114.65a16.28,16.28,0,0,1,14.1-16.1,16.35,16.35,0,0,0-2.2-.2,16.3,16.3,0,0,0,0,32.6,15,15,0,0,0,2.2-.2A16.28,16.28,0,0,1,4.5,114.65Z"/><path class="cls-4" d="M119.1,101.65a34.62,34.62,0,0,1-17.8-64.3,34.6,34.6,0,1,0,33.1,60.7A34.13,34.13,0,0,1,119.1,101.65Z"/><path class="cls-5" d="M116.7,60.25a9.13,9.13,0,0,0-4.9,1.5l4.9,7.2-7.6-4.2a8.69,8.69,0,1,0,7.6-4.5Z"/><circle class="cls-6" cx="119.9" cy="70.15" r="2.5"/><path class="cls-3" d="M121.7,40.45a24.72,24.72,0,0,0-3.9-12c-2.7-4.1-19.4-16.6-23.2-19.4s-14-8.5-19.5-9-7.6,2.8-6.6,5.5,2.9,9.6,5.6,13.1,5.7,7,7.7,8.3,21.3,13.3,21.5,14.5.3,7.6.3,7.6Z"/><path class="cls-5" d="M73.3,13.15H94.7s6.5,4.9,7.7,9.6C106.6,40.25,76,22.35,73.3,13.15Z"/><path class="cls-3" d="M107.1,39.55a25.2,25.2,0,0,0-5.9-11.2c-3.4-3.6-22-13-26.2-15.1s-15.3-6-20.7-5.5-7,4.1-5.5,6.5,4.5,9,7.8,12,6.8,5.9,9,6.9,23.2,9.4,23.7,10.6,1.6,7.4,1.6,7.4Z"/><path class="cls-5" d="M62.6,20.25H84s6.5,4.9,7.7,9.6C95.9,47.35,65.3,29.45,62.6,20.25Z"/><path class="cls-4" d="M117.1,151.25h-52a34.59,34.59,0,0,1-21.1-62A34.61,34.61,0,0,0,61.1,154h52a34.3,34.3,0,0,0,20-7.2A34.55,34.55,0,0,1,117.1,151.25Z"/></g></g></g></svg>