<svg xmlns="http://www.w3.org/2000/svg" viewBox="0 0 218.21 376.79"><defs><style>.cls-1{fill:#fff9f7;}.cls-2{fill:#ffd2c2;}.cls-3,.cls-4{fill:#8a88ff;}.cls-3{stroke:#5a58a6;}.cls-11,.cls-3,.cls-7,.cls-8{stroke-miterlimit:10;}.cls-5{fill:#7b7e80;}.cls-6,.cls-8{fill:#506b99;}.cls-7{fill:#3b4e70;stroke:#4a628c;}.cls-8{stroke:#506b99;}.cls-9{fill:#f9bfbd;}.cls-10,.cls-12{fill:none;}.cls-10,.cls-11{stroke:#000;}.cls-10{stroke-linecap:round;stroke-linejoin:round;}.cls-11{fill:#fff;}</style></defs><title>Asset 2</title><g id="Layer_2" data-name="Layer 2"><g id="grandma"><ellipse class="cls-1" cx="197.73" cy="243.68" rx="21" ry="16.7" transform="translate(-76.18 90.54) rotate(-21.73)"/><path class="cls-2" d="M202.15,254.9c9.8-3.9,15.6-12.9,14-21a21.16,21.16,0,0,1,1.1,2.1c3.4,8.6-2.5,19-13.3,23.3s-22.3.8-25.7-7.7a15.46,15.46,0,0,1-.7-2.3C182,256.2,192.35,258.8,202.15,254.9Z"/><g id="hand"><path class="cls-3" d="M200.55,246.1h0c10.7-6,16-16.9,11.9-24.3l-22.8-39.4c-4.1-7.4-22-20.4-32.7-14.4h0c-10.7,6-6.3,30.9-2.2,38.3l18.9,37.1C177.75,250.9,189.85,252,200.55,246.1Z"/><path class="cls-4" d="M202.85,244h0c10.7-6,16-16.9,11.9-24.3L192,180.3c-4.1-7.4-22-20.4-32.7-14.4h0c-10.7,6-6.3,30.9-2.2,38.3L176,241.3C180.05,248.8,192.25,250,202.85,244Z"/></g><ellipse class="cls-5" cx="29.56" cy="107.81" rx="31.5" ry="25.8" transform="translate(-59.03 39.63) rotate(-37.09)"/><g id="right_foot" data-name="right foot"><path class="cls-6" d="M111.23,271.49s1,78.4,8.8,93,45.8,6.8,45.8,6.8l16.8-99.8Z"/><path class="cls-7" d="M128.23,364.59c-7.8-14.6-8.8-93-8.8-93h-8.3s1,78.4,8.8,93c4.3,8.1,17.9,9.3,29.1,8.8C140.23,372.89,131.53,370.69,128.23,364.59Z"/></g><g id="left_foot" data-name="left foot"><path class="cls-8" d="M54.43,274.39s1,78.4,8.8,93,45.8,6.8,45.8,6.8l16.8-99.8Z"/><path class="cls-7" d="M71.43,367.39c-7.8-14.6-8.8-93-8.8-93h-8.3s1,78.4,8.8,93c4.3,8.1,17.9,9.3,29.1,8.8C83.43,375.69,74.73,373.59,71.43,367.39Z"/></g><path id="body" class="cls-4" d="M61,174.29s-41.1,118.9,16.2,127.6c67.1,10.1,109.5-2.3,107.9-38.9-3-67.7-13.1-86.5-16.3-93.9C158.53,144.49,61,174.29,61,174.29Z"/><ellipse class="cls-1" cx="45.26" cy="261.94" rx="16.7" ry="21" transform="translate(-214.82 206.98) rotate(-68.27)"/><path class="cls-2" d="M40.83,273c-9.8-3.9-15.6-12.9-14-21a21.16,21.16,0,0,0-1.1,2.1c-3.4,8.6,2.5,19,13.3,23.3s22.3.8,25.7-7.7a15.46,15.46,0,0,0,.7-2.3C61.13,274.39,50.63,277,40.83,273Z"/><g id="hand-2" data-name="hand"><path class="cls-3" d="M46,263.09h0c-11.6-3.8-18.9-13.6-16.2-21.7l15-43c2.7-8.1,17.8-24.2,29.4-20.3h0c11.6,3.8,12.1,29.2,9.4,37.2l-11.6,40C69.23,263.49,57.63,267,46,263.09Z"/><path class="cls-4" d="M43.33,261.49h0c-11.6-3.8-18.9-13.6-16.2-21.7l15-43c2.7-8.1,17.8-24.2,29.4-20.3h0c11.6,3.8,12.1,29.2,9.4,37.2l-11.6,40C66.63,261.89,54.93,265.39,43.33,261.49Z"/></g><g id="head"><path class="cls-1" d="M108,180.69c-57,.8-76-20.6-78.5-76.5-1.9-42.2,33.7-66.9,77.1-67,28.9-.1,53.2,3.7,64.1,24.1,17.7,33.2,20.5,77-1.6,101.4C155.83,177.19,136.33,180.29,108,180.69Z"/><path class="cls-2" d="M175.43,152.19c-11.1,17.7-23.7,20.3-53.5,22.3-63.4,4.2-87.6-17.5-86-80.9.3-11.3,1.8-22.1,6.3-31.8a68.79,68.79,0,0,0-12.7,42.9C32,160.59,51,182,108,181.19c28.3-.4,47.9-3.4,61.1-18a55,55,0,0,0,9.2-14.6C177.33,150,176.23,151,175.43,152.19Z"/><path class="cls-5" d="M31.13,121c28.9-35.4,96.4-5.9,115.6-48.8,7.7,8,18.9,13.6,32.5,8.3.2.5.3,1.1.5,1.6a124.92,124.92,0,0,0-9-22.1c-10.9-20.4-35.2-24.2-64.1-24.1-43.4.1-79,24.8-77.1,67C29.83,109.39,30.33,115.39,31.13,121Z"/><ellipse class="cls-9" cx="118.53" cy="128.79" rx="13.4" ry="8.6"/><path id="eye" class="cls-10" d="M141.23,110.39s1.1-8,14.8-8c15.6,0,16.1,8,16.1,8"/><path class="cls-11" d="M141.23,147.59c.8.7,14.2,15,37.9-1.2"/></g><line class="cls-12" x1="194.25" x2="197.35"/><line class="cls-12" x1="198.45" y1="108.6" x2="195.25" y2="108.6"/><line class="cls-12" x1="180.25" y1="67.6" x2="177.35" y2="67.6"/></g></g></svg>