<svg xmlns="http://www.w3.org/2000/svg" xmlns:xlink="http://www.w3.org/1999/xlink" viewBox="0 0 108.3 193.9"><defs><style>.cls-1{fill:#f3cc0d;}.cls-2{fill:#ee3a31;stroke:#ee3a31;stroke-miterlimit:10;}.cls-3{fill:#f3b40d;}.cls-4{fill:url(#radial-gradient);}</style><radialGradient id="radial-gradient" cx="54.15" cy="279" r="48.67" gradientTransform="matrix(1, 0, 0, -1, 0, 369.3)" gradientUnits="userSpaceOnUse"><stop offset="0" stop-color="#72f3f3"/><stop offset="1" stop-color="#67e685"/></radialGradient></defs><title>Asset 9</title><g id="Layer_2" data-name="Layer 2"><g id="Layer_1-2" data-name="Layer 1"><g id="green_lantern" data-name="green lantern"><circle class="cls-1" cx="55.8" cy="156.4" r="2"/><rect class="cls-1" x="55" y="137" width="1.7" height="40.8"/><rect class="cls-1" x="53.4" y="176.3" width="4.7" height="17.6"/><rect class="cls-2" x="53.4" y="178.5" width="4.7" height="4.7"/><rect class="cls-3" x="29.1" y="38" width="51.3" height="11.2"/><rect class="cls-1" x="31.3" y="38" width="49.2" height="7.7"/><rect class="cls-3" x="29.1" y="129.1" width="51.3" height="11.2"/><rect class="cls-1" x="31.3" y="130.9" width="49.2" height="7.7"/><path class="cls-4" d="M70.8,47.8H37.5C16.8,47.8,0,66.8,0,90.3s16.8,42.5,37.5,42.5H70.8c20.7,0,37.5-19,37.5-42.5S91.5,47.8,70.8,47.8Z"/><path class="cls-1" d="M55.8,153.8a5.4,5.4,0,1,1,5.4-5.4A5.51,5.51,0,0,1,55.8,153.8Zm0-8.6a3.22,3.22,0,0,0-3.2,3.2,3.29,3.29,0,0,0,3.2,3.2,3.22,3.22,0,0,0,3.2-3.2A3.29,3.29,0,0,0,55.8,145.2Z"/><path class="cls-1" d="M55.8,169.4a5.4,5.4,0,1,1,5.4-5.4A5.51,5.51,0,0,1,55.8,169.4Zm0-8.6a3.22,3.22,0,0,0-3.2,3.2,3.29,3.29,0,0,0,3.2,3.2A3.22,3.22,0,0,0,59,164,3.29,3.29,0,0,0,55.8,160.8Z"/><path class="cls-1" d="M48.4,161.7a5.4,5.4,0,1,1,5.4-5.4A5.38,5.38,0,0,1,48.4,161.7Zm0-8.6a3.2,3.2,0,1,0,0,6.4,3.29,3.29,0,0,0,3.2-3.2A3.22,3.22,0,0,0,48.4,153.1Z"/><path class="cls-1" d="M63.3,161.7a5.4,5.4,0,1,1,5.4-5.4A5.38,5.38,0,0,1,63.3,161.7Zm0-8.6a3.2,3.2,0,1,0,0,6.4,3.29,3.29,0,0,0,3.2-3.2A3.16,3.16,0,0,0,63.3,153.1Z"/><path class="cls-3" d="M30.3,90.2c0,16.9,7.2,31.4,13.6,37h1.6c-6.4-5.6-9.2-20.1-9.2-37,0-17.1,2.9-31.5,9.5-36.9H44.2C37.6,58.6,30.3,73.1,30.3,90.2Z"/><path class="cls-3" d="M14.8,90.2c0,16.9,7.2,31.4,13.6,37H30c-6.4-5.6-9.2-20.1-9.2-37,0-17.1,2.9-31.5,9.5-36.9H28.7C22.1,58.6,14.8,73.1,14.8,90.2Z"/><rect class="cls-1" x="54.3" width="1" height="39"/><path class="cls-3" d="M66.5,53.4H64.9c6.6,5.4,9.5,19.8,9.5,36.9,0,16.9-2.8,31.4-9.2,37h1.6c6.4-5.6,13.6-20.1,13.6-37C80.4,73.2,73.1,58.7,66.5,53.4Z"/><path class="cls-3" d="M82,53.4H80.4c6.6,5.4,9.5,19.8,9.5,36.9,0,16.9-2.8,31.4-9.2,37h1.6c6.4-5.6,13.6-20.1,13.6-37C95.9,73.2,88.6,58.7,82,53.4Z"/></g></g></g></svg>