<svg xmlns="http://www.w3.org/2000/svg" xmlns:xlink="http://www.w3.org/1999/xlink" viewBox="0 0 168.52 207.25"><defs><style>.cls-1{fill:#fced04;}.cls-2{fill:url(#linear-gradient);}.cls-3{fill:url(#linear-gradient-2);}.cls-4{fill:url(#radial-gradient);}</style><linearGradient id="linear-gradient" x1="96.16" y1="161.25" x2="96.16" y2="192.13" gradientTransform="matrix(-1, 0, 0, 1, 183.23, 0)" gradientUnits="userSpaceOnUse"><stop offset="0" stop-color="#fff"/><stop offset="1" stop-color="#fef9a7"/></linearGradient><linearGradient id="linear-gradient-2" x1="98.97" x2="98.97" y2="193.03" gradientTransform="matrix(-1, 0, 0, 1, 183.23, 0)" gradientUnits="userSpaceOnUse"><stop offset="0" stop-color="#fc4d04"/><stop offset="1" stop-color="#fef78e"/></linearGradient><radialGradient id="radial-gradient" cx="100.18" cy="173.49" r="17.81" gradientTransform="matrix(-1.22, 0, 0, 1.28, 209.45, -49.32)" gradientUnits="userSpaceOnUse"><stop offset="0" stop-color="#fff"/><stop offset="0.01" stop-color="#fff" stop-opacity="0.99"/><stop offset="0.3" stop-color="#fff" stop-opacity="0.64"/><stop offset="0.55" stop-color="#fff" stop-opacity="0.37"/><stop offset="0.76" stop-color="#fff" stop-opacity="0.17"/><stop offset="0.91" stop-color="#fff" stop-opacity="0.05"/><stop offset="1" stop-color="#fff" stop-opacity="0"/></radialGradient></defs><title>Asset 1</title><g id="Layer_2" data-name="Layer 2"><g id="Layer_2-2" data-name="Layer 2"><path class="cls-1" d="M135.92,192.72c.54,7.78-28.35,14.43-50.19,14.53-42.23.2-47.31-13.88-46.22-19.82,2.47-6.68,25.5-9.1,46.14-9.1C112.58,178.33,136.75,180.72,135.92,192.72Z"/><path class="cls-2" d="M82,192.12H92.14c6.6,0,4.94-4.89,4.94-11.49v-8c0-6.6-.27-11.38-6.87-11.38H82c-6.6,0-4.88,4.65-4.88,11.25L77,181.12C77,187.72,75.83,192.12,82,192.12Z"/><path class="cls-3" d="M11.65,15.56a40.78,40.78,0,0,1,22.82-11C47.57,2.65,69.51,0,88.54,0A437.41,437.41,0,0,1,147,4.5c45.26,14.12,8.05,180.35-11.08,188.22-1.35-8-23.34-14.39-50.27-14.39C65,178.33,48,182.5,39.59,191.26c-7.32-4.62-21.84-39.76-29.84-73.51S0,50.25,0,50.25C0,26,7.1,20,11.65,15.56Z"/><g id="Layer_4" data-name="Layer 4"><ellipse class="cls-4" cx="87.66" cy="171.89" rx="23.78" ry="20.24"/></g></g></g></svg>