<svg xmlns="http://www.w3.org/2000/svg" xmlns:xlink="http://www.w3.org/1999/xlink" viewBox="0 0 80.24 215.96"><defs><style>.cls-1{fill:#f3cc0d;}.cls-2{fill:url(#linear-gradient);}.cls-3{fill:url(#linear-gradient-2);}.cls-4{fill:url(#linear-gradient-3);}.cls-5{fill:url(#linear-gradient-4);}.cls-6{fill:url(#linear-gradient-5);}.cls-7{fill:url(#linear-gradient-6);}.cls-8{fill:url(#linear-gradient-7);}.cls-9{fill:url(#linear-gradient-8);}.cls-10{fill:url(#linear-gradient-9);}.cls-11{fill:url(#linear-gradient-10);}.cls-12{fill:url(#linear-gradient-11);}.cls-13{fill:url(#linear-gradient-12);}.cls-14{fill:url(#linear-gradient-13);}.cls-15{fill:url(#linear-gradient-14);}.cls-16{fill:url(#linear-gradient-15);}.cls-17{fill:url(#linear-gradient-16);}.cls-18{fill:url(#linear-gradient-17);}.cls-19{fill:url(#linear-gradient-18);}.cls-20{fill:url(#linear-gradient-19);}.cls-21{fill:url(#linear-gradient-20);}.cls-22{fill:#ff1f29;}.cls-23{fill:url(#linear-gradient-21);}</style><linearGradient id="linear-gradient" y1="51.25" x2="80.24" y2="51.25" gradientUnits="userSpaceOnUse"><stop offset="0.04" stop-color="#ee3aca"/><stop offset="0.52" stop-color="#eec9ca"/><stop offset="1" stop-color="#ee3aca"/></linearGradient><linearGradient id="linear-gradient-2" y1="-901.24" x2="80.24" y2="-901.24" gradientTransform="matrix(1, 0, 0, -1, 0, -842.27)" xlink:href="#linear-gradient"/><linearGradient id="linear-gradient-3" y1="66.69" x2="80.24" y2="66.69" xlink:href="#linear-gradient"/><linearGradient id="linear-gradient-4" y1="-916.69" x2="80.24" y2="-916.69" gradientTransform="matrix(1, 0, 0, -1, 0, -842.27)" xlink:href="#linear-gradient"/><linearGradient id="linear-gradient-5" y1="82.14" x2="80.24" y2="82.14" xlink:href="#linear-gradient"/><linearGradient id="linear-gradient-6" y1="-932.13" x2="80.24" y2="-932.13" gradientTransform="matrix(1, 0, 0, -1, 0, -842.27)" xlink:href="#linear-gradient"/><linearGradient id="linear-gradient-7" y1="97.59" x2="80.24" y2="97.59" xlink:href="#linear-gradient"/><linearGradient id="linear-gradient-8" y1="-947.58" x2="80.24" y2="-947.58" gradientTransform="matrix(1, 0, 0, -1, 0, -842.27)" xlink:href="#linear-gradient"/><linearGradient id="linear-gradient-9" y1="113.03" x2="80.24" y2="113.03" xlink:href="#linear-gradient"/><linearGradient id="linear-gradient-10" x1="30.94" y1="158.84" x2="49.3" y2="158.84" gradientUnits="userSpaceOnUse"><stop offset="0.04" stop-color="#eeaf31"/><stop offset="0.52" stop-color="#916b1e"/><stop offset="1" stop-color="#eeaf31"/></linearGradient><linearGradient id="linear-gradient-11" x1="39.22" y1="168.92" x2="41.02" y2="168.92" xlink:href="#linear-gradient-10"/><linearGradient id="linear-gradient-12" x1="39.22" y1="196.49" x2="41.02" y2="196.49" xlink:href="#linear-gradient-10"/><linearGradient id="linear-gradient-13" x1="39.22" y1="200.52" x2="41.02" y2="200.52" gradientUnits="userSpaceOnUse"><stop offset="0.04" stop-color="#eeaf31"/><stop offset="0.52" stop-color="#91db1e"/><stop offset="1" stop-color="#eeaf31"/></linearGradient><linearGradient id="linear-gradient-14" y1="-963.03" x2="80.24" y2="-963.03" gradientTransform="matrix(1, 0, 0, -1, 0, -842.27)" xlink:href="#linear-gradient"/><linearGradient id="linear-gradient-15" y1="128.48" x2="80.24" y2="128.48" xlink:href="#linear-gradient"/><linearGradient id="linear-gradient-16" y1="143.93" x2="80.24" y2="143.93" xlink:href="#linear-gradient"/><linearGradient id="linear-gradient-17" y1="-978.48" x2="80.24" y2="-978.48" gradientTransform="matrix(1, 0, 0, -1, 0, -842.27)" xlink:href="#linear-gradient"/><linearGradient id="linear-gradient-18" x1="0.43" y1="43.47" x2="79.81" y2="43.47" xlink:href="#linear-gradient"/><linearGradient id="linear-gradient-19" x1="7.26" y1="-1018.14" x2="72.98" y2="-1018.14" gradientTransform="matrix(1, 0, 0, -1, 0, -866.44)" xlink:href="#linear-gradient"/><linearGradient id="linear-gradient-20" x1="30.71" y1="36.23" x2="49.53" y2="36.23" xlink:href="#linear-gradient-10"/><linearGradient id="linear-gradient-21" x1="37.28" y1="208.21" x2="42.96" y2="208.21" gradientUnits="userSpaceOnUse"><stop offset="0" stop-color="#916b1e"/><stop offset="0.5" stop-color="#eeaf31"/><stop offset="1" stop-color="#916b1e"/></linearGradient></defs><title>Asset 5</title><g id="Layer_2" data-name="Layer 2"><g id="Layer_1-2" data-name="Layer 1"><g id="purple_lantern" data-name="purple lantern"><rect class="cls-1" x="39.65" width="1" height="39"/><polygon class="cls-2" points="40.12 47.38 0 47.38 7.51 55.11 40.12 55.11 72.73 55.11 80.24 47.38 40.12 47.38"/><polygon class="cls-3" points="40.12 62.83 0 62.83 7.51 55.11 40.12 55.11 72.73 55.11 80.24 62.83 40.12 62.83"/><polygon class="cls-4" points="40.12 62.83 0 62.83 7.51 70.56 40.12 70.56 72.73 70.56 80.24 62.83 40.12 62.83"/><polygon class="cls-5" points="40.12 78.28 0 78.28 7.51 70.56 40.12 70.56 72.73 70.56 80.24 78.28 40.12 78.28"/><polygon class="cls-6" points="40.12 78.28 0 78.28 7.51 86 40.12 86 72.73 86 80.24 78.28 40.12 78.28"/><polygon class="cls-7" points="40.12 93.73 0 93.73 7.51 86 40.12 86 72.73 86 80.24 93.73 40.12 93.73"/><polygon class="cls-8" points="40.12 93.73 0 93.73 7.51 101.45 40.12 101.45 72.73 101.45 80.24 93.73 40.12 93.73"/><polygon class="cls-9" points="40.12 109.17 0 109.17 7.51 101.45 40.12 101.45 72.73 101.45 80.24 109.17 40.12 109.17"/><polygon class="cls-10" points="40.12 109.17 0 109.17 7.51 116.9 40.12 116.9 72.73 116.9 80.24 109.17 40.12 109.17"/><rect class="cls-11" x="30.94" y="155.51" width="18.36" height="6.65"/><rect class="cls-12" x="39.22" y="162.17" width="1.79" height="13.52"/><rect class="cls-13" x="39.22" y="193.44" width="1.79" height="6.1"/><rect class="cls-14" x="39.22" y="199.47" width="1.79" height="2.11"/><polygon class="cls-15" points="40.12 124.62 0 124.62 7.51 116.9 40.12 116.9 72.73 116.9 80.24 124.62 40.12 124.62"/><polygon class="cls-16" points="40.12 124.62 0 124.62 7.51 132.34 40.12 132.34 72.73 132.34 80.24 124.62 40.12 124.62"/><polygon class="cls-17" points="40.12 140.07 0 140.07 7.51 147.79 40.12 147.79 72.73 147.79 80.24 140.07 40.12 140.07"/><polygon class="cls-18" points="40.12 140.07 0 140.07 7.51 132.34 40.12 132.34 72.73 132.34 80.24 140.07 40.12 140.07"/><polygon class="cls-19" points="51.84 39.55 42.59 39.55 37.65 39.55 28.4 39.55 0.43 47.38 37.65 47.38 42.59 47.38 79.81 47.38 51.84 39.55"/><polygon class="cls-20" points="49.82 155.62 42.16 155.62 38.07 155.62 30.41 155.62 7.26 147.79 38.07 147.79 42.16 147.79 72.97 147.79 49.82 155.62"/><rect class="cls-21" x="30.71" y="32.9" width="18.83" height="6.65"/><path class="cls-22" d="M55.53,178.84a6.37,6.37,0,0,0-6.3,5.19l-3.37-3.37,3.32-3.32a3.86,3.86,0,0,0-5.46-5.47l-3.6,3.6-3.6-3.6a3.86,3.86,0,0,0-5.46,5.47l3.32,3.32L31,184a6.28,6.28,0,1,0,0,2.17l3.38,3.37-3.62,3.62a3.86,3.86,0,0,0,2.74,6.59,3.83,3.83,0,0,0,2.73-1.13l3.88-3.88L44,198.65a3.86,3.86,0,1,0,5.46-5.46l-3.61-3.62,3.38-3.37a6.39,6.39,0,1,0,6.3-7.36ZM24.7,189.46a4.35,4.35,0,1,1,4.48-4.34A4.41,4.41,0,0,1,24.7,189.46Zm20.38-16.22A1.93,1.93,0,0,1,47.82,176l-3.32,3.32-2.7-2.77Zm-1.78,7.55-3.12,3.12L37,180.72l3.13-3.12ZM32.42,176a1.94,1.94,0,0,1,0-2.73,1.91,1.91,0,0,1,1.37-.56,1.89,1.89,0,0,1,1.36.56l3.29,3.28-2.7,2.77Zm.24,9.15,3-3.05,3,3.05-3,3Zm2.21,12.17a2,2,0,0,1-2.73,0,1.94,1.94,0,0,1,0-2.73l3.6-3.61,2.7,2.77ZM37,189.6l3.13-3.13h0l.8.8h0l2.38,2.39-3.12,3.12Zm11.11,5a1.94,1.94,0,0,1,0,2.73,2,2,0,0,1-2.73,0l-3.57-3.57L44.49,191Zm-3.56-6.4-3-3,3-3.05,3,3.05Zm11,1.3A4.35,4.35,0,1,1,60,185.12,4.42,4.42,0,0,1,55.53,189.46Z"/><rect class="cls-23" x="37.28" y="200.45" width="5.69" height="15.51"/><rect class="cls-22" x="37.28" y="203.18" width="5.69" height="3.12"/></g></g></g></svg>