<svg xmlns="http://www.w3.org/2000/svg" xmlns:xlink="http://www.w3.org/1999/xlink" viewBox="0 0 148.25 204.9"><defs><style>.cls-1{fill:#f3cc0d;}.cls-2{fill:#ee3a31;stroke:#ee3a31;stroke-miterlimit:10;}.cls-3{fill:#f3b40d;}.cls-4{fill:url(#radial-gradient);}</style><radialGradient id="radial-gradient" cx="74.12" cy="101.25" r="60.17" gradientUnits="userSpaceOnUse"><stop offset="0" stop-color="#eee"/><stop offset="1" stop-color="#eedc75"/></radialGradient></defs><title>Asset 9</title><g id="Layer_2" data-name="Layer 2"><g id="Layer_1-2" data-name="Layer 1"><g id="yellow_lantern" data-name="yellow lantern"><circle class="cls-1" cx="74.02" cy="167.4" r="2"/><rect class="cls-1" x="73.22" y="148" width="1.7" height="40.8"/><rect class="cls-1" x="71.62" y="187.3" width="4.7" height="17.6"/><rect class="cls-2" x="71.62" y="189.5" width="4.7" height="4.7"/><g id="top_bar" data-name="top bar"><rect class="cls-3" x="49.57" y="50.1" width="46.83" height="11.2"/><rect class="cls-1" x="51.57" y="50.1" width="44.91" height="7.7"/></g><g id="botom_bar" data-name="botom bar"><rect class="cls-3" x="49.57" y="141.2" width="46.83" height="11.2"/><rect class="cls-1" x="51.57" y="143" width="44.91" height="7.7"/></g><path class="cls-1" d="M74,164.8a5.4,5.4,0,1,1,5.4-5.4A5.51,5.51,0,0,1,74,164.8Zm0-8.6a3.22,3.22,0,0,0-3.2,3.2,3.29,3.29,0,0,0,3.2,3.2,3.22,3.22,0,0,0,3.2-3.2A3.29,3.29,0,0,0,74,156.2Z"/><path class="cls-1" d="M74,180.4a5.4,5.4,0,1,1,5.4-5.4A5.51,5.51,0,0,1,74,180.4Zm0-8.6a3.22,3.22,0,0,0-3.2,3.2,3.29,3.29,0,0,0,3.2,3.2,3.22,3.22,0,0,0,3.2-3.2A3.29,3.29,0,0,0,74,171.8Z"/><path class="cls-1" d="M66.62,172.7a5.4,5.4,0,1,1,5.4-5.4A5.38,5.38,0,0,1,66.62,172.7Zm0-8.6a3.2,3.2,0,0,0,0,6.4,3.29,3.29,0,0,0,3.2-3.2A3.22,3.22,0,0,0,66.62,164.1Z"/><path class="cls-1" d="M81.52,172.7a5.4,5.4,0,1,1,5.4-5.4A5.38,5.38,0,0,1,81.52,172.7Zm0-8.6a3.2,3.2,0,1,0,0,6.4,3.29,3.29,0,0,0,3.2-3.2A3.16,3.16,0,0,0,81.52,164.1Z"/><rect class="cls-1" x="72.52" width="1" height="49.9"/><path class="cls-4" d="M91,59.45H57.25C39.21,62.15.31,82.58,0,100.5c-.19,11,29,34.75,57.25,42.55H91c28.25-7.8,57.43-31.57,57.25-42.55C147.94,82.58,109,62.15,91,59.45Z"/><path class="cls-3" d="M84.72,66.65h-1.6c6.6,5.06,9.5,18.54,9.5,34.55,0,15.83-2.8,29.41-9.2,34.65H85c6.4-5.24,13.6-18.82,13.6-34.65C98.62,85.19,91.32,71.61,84.72,66.65Z"/><path class="cls-3" d="M117.68,74.33h-1.6c6.6,3.75,9.5,13.76,9.5,25.64s-2.8,21.81-9.2,25.7H118c6.4-3.89,13.6-14,13.6-25.7S124.28,78,117.68,74.33Z"/><path class="cls-3" d="M100.22,69h-1.6c6.6,4.65,9.5,17.06,9.5,31.79,0,14.56-2.8,27.05-9.2,31.88h1.6c6.4-4.83,13.6-17.32,13.6-31.88C114.12,86.06,106.82,73.57,100.22,69Z"/><path class="cls-3" d="M47.92,101.2c0,15.83,7.2,29.41,13.6,34.65h1.6c-6.4-5.24-9.2-18.82-9.2-34.65,0-16,2.9-29.49,9.5-34.55h-1.6C55.22,71.61,47.92,85.19,47.92,101.2Z"/><path class="cls-3" d="M15,100c0,11.73,7.2,21.81,13.6,25.7h1.6c-6.4-3.89-9.2-14-9.2-25.7s2.9-21.89,9.5-25.64h-1.6C22.27,78,15,88.09,15,100Z"/><path class="cls-3" d="M32.42,100.79c0,14.56,7.2,27.05,13.6,31.88h1.6c-6.4-4.83-9.2-17.32-9.2-31.88,0-14.73,2.9-27.14,9.5-31.79h-1.6C39.72,73.57,32.42,86.06,32.42,100.79Z"/></g></g></g></svg>