<svg xmlns="http://www.w3.org/2000/svg" xmlns:xlink="http://www.w3.org/1999/xlink" viewBox="0 0 120.6 81.9"><defs><style>.cls-1{fill:#fff;}.cls-2{fill:#cfeaff;}.cls-3{fill:url(#radial-gradient);}.cls-4{fill:url(#radial-gradient-2);}.cls-5{fill:url(#radial-gradient-3);}.cls-6{fill:url(#radial-gradient-4);}.cls-7{fill:url(#radial-gradient-5);}.cls-8{fill:url(#radial-gradient-6);}.cls-9{fill:url(#linear-gradient);}</style><radialGradient id="radial-gradient" cx="70.4" cy="-311.91" r="9.06" gradientTransform="matrix(1, 0, 0, -1, 0, -289.5)" gradientUnits="userSpaceOnUse"><stop offset="0" stop-color="#f7931e"/><stop offset="1" stop-color="#fff"/></radialGradient><radialGradient id="radial-gradient-2" cx="48.5" cy="-315.03" r="9.07" gradientTransform="matrix(1, 0, 0, -1, 0, -289.5)" gradientUnits="userSpaceOnUse"><stop offset="0" stop-color="#ff7bac"/><stop offset="1" stop-color="#fff"/></radialGradient><radialGradient id="radial-gradient-3" cx="32.54" cy="-322.15" r="9.07" xlink:href="#radial-gradient-2"/><radialGradient id="radial-gradient-4" cx="54.6" cy="-319.79" r="9.08" gradientTransform="matrix(1, 0, 0, -1, 0, -289.5)" gradientUnits="userSpaceOnUse"><stop offset="0" stop-color="#8a88ff"/><stop offset="1" stop-color="#fff"/></radialGradient><radialGradient id="radial-gradient-5" cx="84.58" cy="-319.79" r="9.07" gradientTransform="matrix(1, 0, 0, -1, 0, -289.5)" gradientUnits="userSpaceOnUse"><stop offset="0" stop-color="#39b54a"/><stop offset="1" stop-color="#fff"/></radialGradient><radialGradient id="radial-gradient-6" cx="73.42" cy="-324.15" r="9.07" gradientTransform="matrix(1, 0, 0, -1, 0, -289.5)" gradientUnits="userSpaceOnUse"><stop offset="0" stop-color="#fdf65c"/><stop offset="1" stop-color="#fff"/></radialGradient><linearGradient id="linear-gradient" y1="-343.22" x2="120.6" y2="-343.22" gradientTransform="matrix(1, 0, 0, -1, 0, -289.5)" gradientUnits="userSpaceOnUse"><stop offset="0" stop-color="#787878"/><stop offset="1" stop-color="#fff"/></linearGradient></defs><title>Asset 1</title><g id="Layer_2" data-name="Layer 2"><g id="Layer_1-2" data-name="Layer 1"><g id="Layer_1-3" data-name="Layer 1"><g id="left_screen" data-name="left screen"><ellipse class="cls-1" cx="60.3" cy="26.4" rx="60.3" ry="26.4"/><ellipse class="cls-2" cx="60.1" cy="38.6" rx="53.5" ry="14.2"/><path class="cls-3" d="M70.4,30.6c4.2,0,7.9-1.8,9.6-4.3a8.52,8.52,0,0,0,.3-2.3,9.9,9.9,0,1,0-19.8,0,8.52,8.52,0,0,0,.3,2.3C62.5,28.9,66.2,30.6,70.4,30.6Z"/><path class="cls-4" d="M48.5,33.78c4.2,0,7.9-1.8,9.6-4.3a8.52,8.52,0,0,0,.3-2.3,9.9,9.9,0,0,0-19.8,0,8.52,8.52,0,0,0,.3,2.3C40.6,32,44.3,33.78,48.5,33.78Z"/><path class="cls-5" d="M32.5,40.9c4.2,0,7.9-1.8,9.6-4.3a8.52,8.52,0,0,0,.3-2.3,9.9,9.9,0,0,0-19.8,0,8.52,8.52,0,0,0,.3,2.3C24.7,39.1,28.3,40.9,32.5,40.9Z"/><path class="cls-6" d="M54.6,38.5c4.2,0,7.9-1.8,9.6-4.3a8.52,8.52,0,0,0,.3-2.3,9.9,9.9,0,0,0-19.8,0,8.52,8.52,0,0,0,.3,2.3C46.8,36.8,50.4,38.5,54.6,38.5Z"/><path class="cls-7" d="M84.6,38.5c4.2,0,7.9-1.8,9.6-4.3a8.52,8.52,0,0,0,.3-2.3,9.9,9.9,0,0,0-19.8,0,8.52,8.52,0,0,0,.3,2.3C76.7,36.8,80.4,38.5,84.6,38.5Z"/><path class="cls-8" d="M73.42,42.9c4.2,0,7.9-1.8,9.6-4.3a8.52,8.52,0,0,0,.3-2.3,9.9,9.9,0,1,0-19.8,0,8.52,8.52,0,0,0,.3,2.3C65.52,41.1,69.22,42.9,73.42,42.9Z"/><path class="cls-9" d="M61.3,42.3C33.1,42.11,16.7,41.65,0,25.53v.19c0,31,27,56.18,60.3,56.18s60.3-25.16,60.3-56.18v-.19C107.5,41.09,88.6,42.49,61.3,42.3Z"/></g></g></g></g></svg>